<svg width="256" height="256" viewBox="0 0 256 256" fill="none" xmlns="http://www.w3.org/2000/svg">
<g clip-path="url(#clip0_2517_8)">
<path d="M128 140C134.627 140 140 134.627 140 128C140 121.373 134.627 116 128 116C121.373 116 116 121.373 116 128C116 134.627 121.373 140 128 140Z" fill="#4DA6FF"/>
<path d="M84 140C90.6274 140 96 134.627 96 128C96 121.373 90.6274 116 84 116C77.3726 116 72 121.373 72 128C72 134.627 77.3726 140 84 140Z" fill="#4DA6FF"/>
<path d="M172 140C178.627 140 184 134.627 184 128C184 121.373 178.627 116 172 116C165.373 116 160 121.373 160 128C160 134.627 165.373 140 172 140Z" fill="#4DA6FF"/>
<path d="M45.15 230.11C43.9848 231.09 42.564 231.718 41.0546 231.918C39.5452 232.119 38.0099 231.885 36.629 231.243C35.2481 230.602 34.079 229.579 33.259 228.296C32.439 227.013 32.0023 225.523 32 224V64C32 61.8783 32.8429 59.8434 34.3431 58.3431C35.8434 56.8429 37.8783 56 40 56H216C218.122 56 220.157 56.8429 221.657 58.3431C223.157 59.8434 224 61.8783 224 64V192C224 194.122 223.157 196.157 221.657 197.657C220.157 199.157 218.122 200 216 200H80L45.15 230.11Z" stroke="#4DA6FF" stroke-width="16" stroke-linecap="round" stroke-linejoin="round"/>
</g>
<defs>
<clipPath id="clip0_2517_8">
<rect width="256" height="256" fill="white"/>
</clipPath>
</defs>
</svg>
