<svg width="256" height="256" viewBox="0 0 256 256" fill="none" xmlns="http://www.w3.org/2000/svg">
<g clip-path="url(#clip0_2517_2)">
<path d="M88 232H168" stroke="#4DA6FF" stroke-width="16" stroke-linecap="round" stroke-linejoin="round"/>
<path d="M78.7 167C69.1897 159.571 61.4867 150.083 56.1695 139.249C50.8522 128.416 48.0592 116.518 48 104.45C47.76 61.09 82.72 25 126.07 24C142.87 23.5931 159.372 28.487 173.234 37.9874C187.096 47.4878 197.614 61.1122 203.296 76.9275C208.978 92.7428 209.535 109.946 204.889 126.096C200.242 142.246 190.628 156.522 177.41 166.9C174.495 169.161 172.132 172.055 170.502 175.365C168.871 178.674 168.016 182.311 168 186V192C168 194.122 167.157 196.157 165.657 197.657C164.157 199.157 162.122 200 160 200H96C93.8783 200 91.8434 199.157 90.3432 197.657C88.8429 196.157 88 194.122 88 192V186C87.9962 182.334 87.1566 178.718 85.5451 175.426C83.9335 172.133 81.5925 169.252 78.7 167Z" stroke="#4DA6FF" stroke-width="16" stroke-linecap="round" stroke-linejoin="round"/>
<path d="M136 56C156 59.37 172.61 76 176 96" stroke="#4DA6FF" stroke-width="16" stroke-linecap="round" stroke-linejoin="round"/>
</g>
<defs>
<clipPath id="clip0_2517_2">
<rect width="256" height="256" fill="white"/>
</clipPath>
</defs>
</svg>
