<svg width="1080" height="1080" viewBox="0 0 1080 1080" fill="none" xmlns="http://www.w3.org/2000/svg">
<rect width="1080" height="1080" rx="160" fill="black"/>
<path d="M479.416 537.014C479.416 534.805 481.207 533.014 483.416 533.014H547.649V583.291H483.416C481.207 583.291 479.416 581.5 479.416 579.291V537.014Z" fill="white"/>
<rect x="425.547" y="502.488" width="68.2335" height="50.2773" rx="4" fill="white"/>
<rect x="371.678" y="471.963" width="68.2335" height="50.2773" rx="4" fill="white"/>
<rect x="319.605" y="441.438" width="68.2335" height="50.2773" rx="4" fill="white"/>
<rect x="265.737" y="410.912" width="68.2335" height="50.2773" rx="4" fill="white"/>
<rect x="211.869" y="380.386" width="68.2335" height="50.2773" rx="4" fill="white"/>
<rect x="158" y="349.86" width="68.2335" height="50.2773" rx="4" fill="white"/>
<path d="M479.416 598.065C479.416 595.856 481.207 594.065 483.416 594.065H547.649V644.343H483.416C481.207 644.343 479.416 642.552 479.416 640.343V598.065Z" fill="white"/>
<rect x="425.547" y="563.539" width="68.2335" height="50.2773" rx="4" fill="white"/>
<rect x="371.678" y="533.014" width="68.2335" height="50.2773" rx="4" fill="white"/>
<rect x="319.605" y="502.488" width="68.2335" height="50.2773" rx="4" fill="white"/>
<rect x="265.737" y="471.963" width="68.2335" height="50.2773" rx="4" fill="white"/>
<rect x="211.869" y="441.438" width="68.2335" height="50.2773" rx="4" fill="white"/>
<rect x="158" y="410.912" width="68.2335" height="50.2773" rx="4" fill="white"/>
<path d="M479.416 659.115C479.416 656.906 481.207 655.115 483.416 655.115H547.649V705.393H483.416C481.207 705.393 479.416 703.602 479.416 701.393V659.115Z" fill="white"/>
<rect x="425.547" y="624.591" width="68.2335" height="50.2773" rx="4" fill="white"/>
<rect x="371.678" y="594.065" width="68.2335" height="50.2773" rx="4" fill="white"/>
<rect x="319.605" y="563.539" width="68.2335" height="50.2773" rx="4" fill="white"/>
<rect x="265.737" y="533.014" width="68.2335" height="50.2773" rx="4" fill="white"/>
<rect x="211.869" y="502.488" width="68.2335" height="50.2773" rx="4" fill="white"/>
<rect x="158" y="471.963" width="68.2335" height="50.2773" rx="4" fill="white"/>
<path d="M479.416 721.963C479.416 719.754 481.207 717.963 483.416 717.963H547.649V768.24H483.416C481.207 768.24 479.416 766.449 479.416 764.24V721.963Z" fill="white"/>
<rect x="425.547" y="687.438" width="68.2335" height="50.2773" rx="4" fill="white"/>
<rect x="371.678" y="656.911" width="68.2335" height="50.2773" rx="4" fill="white"/>
<rect x="319.605" y="626.386" width="68.2335" height="50.2773" rx="4" fill="white"/>
<rect x="265.737" y="595.86" width="68.2335" height="50.2773" rx="4" fill="white"/>
<rect x="211.869" y="565.335" width="68.2335" height="50.2773" rx="4" fill="white"/>
<rect x="158" y="534.81" width="68.2335" height="50.2773" rx="4" fill="white"/>
<path d="M479.416 783.014C479.416 780.805 481.207 779.014 483.416 779.014H547.649V829.291H483.416C481.207 829.291 479.416 827.5 479.416 825.291V783.014Z" fill="white"/>
<rect x="425.547" y="748.487" width="68.2335" height="50.2773" rx="4" fill="white"/>
<rect x="371.678" y="717.963" width="68.2335" height="50.2773" rx="4" fill="white"/>
<rect x="319.605" y="687.438" width="68.2335" height="50.2773" rx="4" fill="white"/>
<rect x="265.737" y="656.911" width="68.2335" height="50.2773" rx="4" fill="white"/>
<rect x="211.869" y="626.386" width="68.2335" height="50.2773" rx="4" fill="white"/>
<rect x="158" y="595.86" width="68.2335" height="50.2773" rx="4" fill="white"/>
<path d="M479.416 844.064C479.416 841.855 481.207 840.064 483.416 840.064H547.649V890.342H483.416C481.207 890.342 479.416 888.551 479.416 886.342V844.064Z" fill="white"/>
<rect x="425.547" y="809.538" width="68.2335" height="50.2773" rx="4" fill="white"/>
<rect x="371.678" y="779.014" width="68.2335" height="50.2773" rx="4" fill="white"/>
<rect x="319.605" y="748.487" width="68.2335" height="50.2773" rx="4" fill="white"/>
<rect x="265.737" y="717.963" width="68.2335" height="50.2773" rx="4" fill="white"/>
<rect x="211.869" y="687.438" width="68.2335" height="50.2773" rx="4" fill="white"/>
<rect x="158" y="656.911" width="68.2335" height="50.2773" rx="4" fill="white"/>
<path d="M479.416 905.115C479.416 902.906 481.207 901.115 483.416 901.115H547.649V951.393H483.416C481.207 951.393 479.416 949.602 479.416 947.393V905.115Z" fill="white"/>
<rect x="425.547" y="870.59" width="68.2335" height="50.2773" rx="4" fill="white"/>
<rect x="371.678" y="840.064" width="68.2335" height="50.2773" rx="4" fill="white"/>
<rect x="319.605" y="811.335" width="68.2335" height="50.2773" rx="4" fill="white"/>
<rect x="265.737" y="780.81" width="68.2335" height="50.2773" rx="4" fill="white"/>
<rect x="211.869" y="750.283" width="68.2335" height="50.2773" rx="4" fill="white"/>
<rect x="158" y="719.758" width="68.2335" height="50.2773" rx="4" fill="white"/>
<rect x="597.926" y="507.875" width="57.4597" height="37.708" rx="4" fill="white"/>
<rect x="599.722" y="568.927" width="55.6641" height="37.708" rx="4" fill="white"/>
<rect x="651.795" y="845.451" width="57.4597" height="37.708" rx="4" fill="white"/>
<rect x="597.926" y="631.773" width="55.6641" height="35.9123" rx="4" fill="white"/>
<rect x="597.926" y="692.824" width="55.6641" height="35.9123" rx="4" fill="white"/>
<rect x="597.926" y="753.874" width="57.4597" height="37.708" rx="4" fill="white"/>
<rect x="597.926" y="814.926" width="57.4597" height="37.708" rx="4" fill="white"/>
<rect x="597.926" y="875.977" width="57.4597" height="37.708" rx="4" fill="white"/>
<rect x="651.795" y="477.35" width="57.4597" height="37.708" rx="4" fill="white"/>
<rect x="653.59" y="538.401" width="55.6641" height="37.708" rx="4" fill="white"/>
<rect x="653.59" y="601.247" width="55.6641" height="35.9123" rx="4" fill="white"/>
<rect x="653.59" y="662.299" width="55.6641" height="35.9123" rx="4" fill="white"/>
<rect x="653.59" y="723.349" width="55.6641" height="35.9123" rx="4" fill="white"/>
<rect x="651.795" y="784.4" width="57.4597" height="37.708" rx="4" fill="white"/>
<rect x="705.664" y="446.824" width="57.4597" height="37.708" rx="4" fill="white"/>
<rect x="707.459" y="509.671" width="55.6641" height="35.9123" rx="4" fill="white"/>
<rect x="707.459" y="570.722" width="55.6641" height="35.9123" rx="4" fill="white"/>
<rect x="707.459" y="631.773" width="55.6641" height="35.9123" rx="4" fill="white"/>
<rect x="707.459" y="692.824" width="55.6641" height="35.9123" rx="4" fill="white"/>
<rect x="707.459" y="753.874" width="55.6641" height="35.9123" rx="4" fill="white"/>
<rect x="705.664" y="814.926" width="57.4597" height="37.708" rx="4" fill="white"/>
<rect x="759.531" y="416.299" width="55.6641" height="37.708" rx="4" fill="white"/>
<rect x="759.531" y="477.35" width="55.6641" height="37.708" rx="4" fill="white"/>
<rect x="759.531" y="538.401" width="55.6641" height="37.708" rx="4" fill="white"/>
<rect x="759.531" y="599.452" width="55.6641" height="37.708" rx="4" fill="white"/>
<rect x="759.531" y="662.299" width="55.6641" height="35.9123" rx="4" fill="white"/>
<rect x="759.531" y="723.349" width="55.6641" height="35.9123" rx="4" fill="white"/>
<rect x="759.531" y="784.4" width="55.6641" height="37.708" rx="4" fill="white"/>
<rect x="813.4" y="385.773" width="55.6641" height="35.9123" rx="4" fill="white"/>
<rect x="813.4" y="446.824" width="55.6641" height="35.9123" rx="4" fill="white"/>
<rect x="813.4" y="507.875" width="55.6641" height="35.9123" rx="4" fill="white"/>
<rect x="813.4" y="568.927" width="55.6641" height="35.9123" rx="4" fill="white"/>
<rect x="813.4" y="631.773" width="55.6641" height="35.9123" rx="4" fill="white"/>
<rect x="813.4" y="692.824" width="55.6641" height="35.9123" rx="4" fill="white"/>
<rect x="813.4" y="753.874" width="55.6641" height="35.9123" rx="4" fill="white"/>
<rect x="865.473" y="353.452" width="55.6641" height="37.708" rx="4" fill="white"/>
<rect x="865.473" y="414.503" width="55.6641" height="37.708" rx="4" fill="white"/>
<rect x="865.473" y="477.35" width="55.6641" height="37.708" rx="4" fill="white"/>
<rect x="865.473" y="538.401" width="55.6641" height="37.708" rx="4" fill="white"/>
<rect x="865.473" y="599.452" width="55.6641" height="37.708" rx="4" fill="white"/>
<rect x="865.473" y="660.502" width="55.6641" height="37.708" rx="4" fill="white"/>
<rect x="865.473" y="721.554" width="55.6641" height="37.708" rx="4" fill="white"/>
<rect x="547.649" y="538.401" width="55.6641" height="37.708" fill="white"/>
<rect x="545.853" y="601.247" width="55.6641" height="35.9123" fill="white"/>
<rect x="545.853" y="662.299" width="55.6641" height="35.9123" fill="white"/>
<rect x="545.853" y="723.349" width="55.6641" height="35.9123" fill="white"/>
<rect x="545.853" y="784.4" width="55.6641" height="37.708" fill="white"/>
<rect x="545.853" y="845.451" width="55.6641" height="37.708" fill="white"/>
<rect x="545.853" y="906.502" width="55.6641" height="37.708" fill="white"/>
<rect x="199.299" y="310.357" width="46.686" height="26.9343" rx="4" fill="white"/>
<rect x="253.168" y="340.883" width="46.686" height="26.9343" rx="4" fill="white"/>
<rect x="307.036" y="371.408" width="44.8904" height="26.9343" rx="4" fill="white"/>
<rect x="360.905" y="401.934" width="44.8904" height="26.9343" rx="4" fill="white"/>
<rect x="414.773" y="432.46" width="43.0948" height="25.1386" rx="4" fill="white"/>
<rect x="468.642" y="462.985" width="43.0948" height="26.9343" rx="4" fill="white"/>
<rect x="522.51" y="493.511" width="43.0948" height="26.9343" rx="4" fill="white"/>
<rect x="253.168" y="279.832" width="46.686" height="26.9343" rx="4" fill="white"/>
<rect x="307.036" y="310.357" width="44.8904" height="26.9343" rx="4" fill="white"/>
<rect x="360.905" y="340.883" width="44.8904" height="26.9343" rx="4" fill="white"/>
<rect x="414.773" y="371.408" width="43.0948" height="26.9343" rx="4" fill="white"/>
<rect x="468.642" y="401.934" width="43.0948" height="25.1386" rx="4" fill="white"/>
<rect x="522.51" y="432.46" width="44.8904" height="26.9343" rx="4" fill="white"/>
<rect x="576.379" y="462.985" width="43.0948" height="26.9343" rx="4" fill="white"/>
<rect x="307.036" y="249.306" width="44.8904" height="26.9343" rx="4" fill="white"/>
<rect x="360.905" y="279.832" width="44.8904" height="26.9343" rx="4" fill="white"/>
<rect x="414.773" y="310.357" width="43.0948" height="26.9343" rx="4" fill="white"/>
<rect x="468.642" y="340.883" width="43.0948" height="26.9343" rx="4" fill="white"/>
<rect x="522.51" y="371.408" width="43.0948" height="26.9343" rx="4" fill="white"/>
<rect x="576.379" y="401.934" width="43.0948" height="26.9343" rx="4" fill="white"/>
<rect x="630.247" y="432.46" width="43.0948" height="26.9343" rx="4" fill="white"/>
<rect x="362.7" y="218.78" width="43.0948" height="26.9343" rx="4" fill="white"/>
<rect x="414.773" y="249.306" width="43.0948" height="26.9343" rx="4" fill="white"/>
<rect x="468.642" y="278.036" width="43.0948" height="26.9343" rx="4" fill="white"/>
<rect x="522.51" y="310.357" width="43.0948" height="26.9343" rx="4" fill="white"/>
<rect x="576.379" y="340.883" width="43.0948" height="26.9343" rx="4" fill="white"/>
<rect x="630.247" y="371.408" width="43.0948" height="26.9343" rx="4" fill="white"/>
<rect x="684.116" y="398.342" width="43.0948" height="26.9343" rx="4" fill="white"/>
<rect x="414.773" y="188.255" width="43.0948" height="26.9343" rx="4" fill="white"/>
<rect x="468.642" y="218.78" width="43.0948" height="26.9343" rx="4" fill="white"/>
<rect x="522.51" y="249.306" width="43.0948" height="26.9343" rx="4" fill="white"/>
<rect x="576.379" y="279.832" width="43.0948" height="26.9343" rx="4" fill="white"/>
<rect x="630.247" y="310.357" width="43.0948" height="26.9343" rx="4" fill="white"/>
<rect x="684.116" y="340.883" width="43.0948" height="26.9343" rx="4" fill="white"/>
<rect x="737.984" y="371.408" width="43.0948" height="26.9343" rx="4" fill="white"/>
<rect x="468.642" y="157.729" width="43.0948" height="26.9343" rx="4" fill="white"/>
<rect x="522.51" y="188.255" width="43.0948" height="26.9343" rx="4" fill="white"/>
<rect x="576.379" y="218.78" width="43.0948" height="26.9343" rx="4" fill="white"/>
<rect x="630.247" y="249.306" width="43.0948" height="26.9343" rx="4" fill="white"/>
<rect x="684.116" y="279.832" width="43.0948" height="26.9343" rx="4" fill="white"/>
<rect x="737.984" y="310.357" width="43.0948" height="26.9343" rx="4" fill="white"/>
<rect x="790.057" y="340.883" width="43.0948" height="26.9343" rx="4" fill="white"/>
<rect x="522.51" y="129" width="43.0948" height="26.9343" rx="4" fill="white"/>
<rect x="576.379" y="155.935" width="43.0948" height="26.9343" rx="4" fill="white"/>
<rect x="630.247" y="188.255" width="43.0948" height="26.9343" rx="4" fill="white"/>
<rect x="684.116" y="218.78" width="43.0948" height="26.9343" rx="4" fill="white"/>
<rect x="737.984" y="249.306" width="43.0948" height="26.9343" rx="4" fill="white"/>
<rect x="790.057" y="279.832" width="43.0948" height="26.9343" rx="4" fill="white"/>
<rect x="843.925" y="310.357" width="43.0948" height="26.9343" rx="4" fill="white"/>
</svg>
