<svg width="302" height="201" viewBox="0 0 302 201" fill="none" xmlns="http://www.w3.org/2000/svg">
  <defs>
    <linearGradient id="whiteBlueGradient" x1="0" y1="0" x2="0" y2="1">
      <stop offset="0%" stop-color="white"/>
      <stop offset="100%" stop-color="#007BFF"/>
    </linearGradient>
  </defs>

  <rect x="0.875" y="77.9492" width="19.3294" height="113.399" rx="9.6647" fill="url(#whiteBlueGradient)"/>
  <rect x="29.2249" y="65.063" width="19.3294" height="114.688" rx="9.6647" fill="url(#whiteBlueGradient)"/>
  <rect x="56.2859" y="39.29" width="20.618" height="114.688" rx="10.309" fill="url(#whiteBlueGradient)"/>
  <rect x="84.6357" y="9.65186" width="19.3294" height="113.399" rx="9.6647" fill="url(#whiteBlueGradient)"/>
  <rect x="112.986" y="39.29" width="19.3294" height="114.688" rx="9.6647" fill="url(#whiteBlueGradient)"/>
  <rect x="141.335" y="65.063" width="19.3294" height="114.688" rx="9.6647" fill="url(#whiteBlueGradient)"/>
  <rect x="168.396" y="77.9492" width="20.618" height="113.399" rx="10.309" fill="url(#whiteBlueGradient)"/>
  <rect x="196.746" y="77.9492" width="19.3294" height="113.399" rx="9.6647" fill="url(#whiteBlueGradient)"/>
  <rect x="225.096" y="77.9492" width="19.3294" height="113.399" rx="9.6647" fill="url(#whiteBlueGradient)"/>
  <rect x="253.446" y="77.9492" width="19.3294" height="113.399" rx="9.6647" fill="url(#whiteBlueGradient)"/>
  <rect x="281.796" y="77.9492" width="19.3294" height="113.399" rx="9.6647" fill="url(#whiteBlueGradient)"/>
</svg>
