<svg width="1080" height="1080" viewBox="0 0 1080 1080" fill="none" xmlns="http://www.w3.org/2000/svg">
<path d="M488.489 537.799C488.489 535.59 490.28 533.799 492.489 533.799H547.398V577.205H492.489C490.28 577.205 488.489 575.414 488.489 573.205V537.799Z" fill="white"/>
<rect x="441.983" y="507.445" width="58.9083" height="43.4061" rx="4" fill="white"/>
<rect x="395.476" y="481.092" width="58.9083" height="43.4061" rx="4" fill="white"/>
<rect x="350.52" y="454.738" width="58.9083" height="43.4061" rx="4" fill="white"/>
<rect x="304.013" y="428.385" width="58.9083" height="43.4061" rx="4" fill="white"/>
<rect x="257.507" y="402.03" width="58.9083" height="43.4061" rx="4" fill="white"/>
<rect x="211" y="375.677" width="58.9083" height="43.4061" rx="4" fill="white"/>
<path d="M488.489 590.507C488.489 588.298 490.28 586.507 492.489 586.507H547.398V629.913H492.489C490.28 629.913 488.489 628.122 488.489 625.913V590.507Z" fill="white"/>
<rect x="441.983" y="560.152" width="58.9083" height="43.4061" rx="4" fill="white"/>
<rect x="395.476" y="533.799" width="58.9083" height="43.4061" rx="4" fill="white"/>
<rect x="350.52" y="507.445" width="58.9083" height="43.4061" rx="4" fill="white"/>
<rect x="304.013" y="481.092" width="58.9083" height="43.4061" rx="4" fill="white"/>
<rect x="257.507" y="454.738" width="58.9083" height="43.4061" rx="4" fill="white"/>
<rect x="211" y="428.385" width="58.9083" height="43.4061" rx="4" fill="white"/>
<path d="M488.489 643.214C488.489 641.005 490.28 639.214 492.489 639.214H547.398V682.62H492.489C490.28 682.62 488.489 680.829 488.489 678.62V643.214Z" fill="white"/>
<rect x="441.983" y="612.86" width="58.9083" height="43.4061" rx="4" fill="white"/>
<rect x="395.476" y="586.507" width="58.9083" height="43.4061" rx="4" fill="white"/>
<rect x="350.52" y="560.152" width="58.9083" height="43.4061" rx="4" fill="white"/>
<rect x="304.013" y="533.799" width="58.9083" height="43.4061" rx="4" fill="white"/>
<rect x="257.507" y="507.445" width="58.9083" height="43.4061" rx="4" fill="white"/>
<rect x="211" y="481.092" width="58.9083" height="43.4061" rx="4" fill="white"/>
<path d="M488.489 697.472C488.489 695.263 490.28 693.472 492.489 693.472H547.398V736.878H492.489C490.28 736.878 488.489 735.087 488.489 732.878V697.472Z" fill="white"/>
<rect x="441.983" y="667.118" width="58.9083" height="43.4061" rx="4" fill="white"/>
<rect x="395.476" y="640.764" width="58.9083" height="43.4061" rx="4" fill="white"/>
<rect x="350.52" y="614.41" width="58.9083" height="43.4061" rx="4" fill="white"/>
<rect x="304.013" y="588.057" width="58.9083" height="43.4061" rx="4" fill="white"/>
<rect x="257.507" y="561.703" width="58.9083" height="43.4061" rx="4" fill="white"/>
<rect x="211" y="535.35" width="58.9083" height="43.4061" rx="4" fill="white"/>
<path d="M488.489 750.18C488.489 747.971 490.28 746.18 492.489 746.18H547.398V789.586H492.489C490.28 789.586 488.489 787.795 488.489 785.586V750.18Z" fill="white"/>
<rect x="441.983" y="719.825" width="58.9083" height="43.4061" rx="4" fill="white"/>
<rect x="395.476" y="693.472" width="58.9083" height="43.4061" rx="4" fill="white"/>
<rect x="350.52" y="667.118" width="58.9083" height="43.4061" rx="4" fill="white"/>
<rect x="304.013" y="640.764" width="58.9083" height="43.4061" rx="4" fill="white"/>
<rect x="257.507" y="614.41" width="58.9083" height="43.4061" rx="4" fill="white"/>
<rect x="211" y="588.057" width="58.9083" height="43.4061" rx="4" fill="white"/>
<path d="M488.489 802.887C488.489 800.678 490.28 798.887 492.489 798.887H547.398V842.293H492.489C490.28 842.293 488.489 840.502 488.489 838.293V802.887Z" fill="white"/>
<rect x="441.983" y="772.532" width="58.9083" height="43.4061" rx="4" fill="white"/>
<rect x="395.476" y="746.18" width="58.9083" height="43.4061" rx="4" fill="white"/>
<rect x="350.52" y="719.825" width="58.9083" height="43.4061" rx="4" fill="white"/>
<rect x="304.013" y="693.472" width="58.9083" height="43.4061" rx="4" fill="white"/>
<rect x="257.507" y="667.118" width="58.9083" height="43.4061" rx="4" fill="white"/>
<rect x="211" y="640.764" width="58.9083" height="43.4061" rx="4" fill="white"/>
<path d="M488.489 855.594C488.489 853.385 490.28 851.594 492.489 851.594H547.398V895H492.489C490.28 895 488.489 893.209 488.489 891V855.594Z" fill="white"/>
<rect x="441.983" y="825.24" width="58.9083" height="43.4061" rx="4" fill="white"/>
<rect x="395.476" y="798.887" width="58.9083" height="43.4061" rx="4" fill="white"/>
<rect x="350.52" y="774.083" width="58.9083" height="43.4061" rx="4" fill="white"/>
<rect x="304.013" y="747.729" width="58.9083" height="43.4061" rx="4" fill="white"/>
<rect x="257.507" y="721.375" width="58.9083" height="43.4061" rx="4" fill="white"/>
<rect x="211" y="695.021" width="58.9083" height="43.4061" rx="4" fill="white"/>
<rect x="590.803" y="512.096" width="49.607" height="32.5546" rx="4" fill="white"/>
<rect x="592.354" y="564.804" width="48.0568" height="32.5546" rx="4" fill="white"/>
<rect x="637.31" y="803.537" width="49.607" height="32.5546" rx="4" fill="white"/>
<rect x="590.803" y="619.062" width="48.0568" height="31.0044" rx="4" fill="white"/>
<rect x="590.803" y="671.769" width="48.0568" height="31.0044" rx="4" fill="white"/>
<rect x="590.803" y="724.476" width="49.607" height="32.5546" rx="4" fill="white"/>
<rect x="590.803" y="777.184" width="49.607" height="32.5546" rx="4" fill="white"/>
<rect x="590.803" y="829.891" width="49.607" height="32.5546" rx="4" fill="white"/>
<rect x="637.31" y="485.742" width="49.607" height="32.5546" rx="4" fill="white"/>
<rect x="638.86" y="538.45" width="48.0568" height="32.5546" rx="4" fill="white"/>
<rect x="638.86" y="592.707" width="48.0568" height="31.0044" rx="4" fill="white"/>
<rect x="638.86" y="645.415" width="48.0568" height="31.0044" rx="4" fill="white"/>
<rect x="638.86" y="698.122" width="48.0568" height="31.0044" rx="4" fill="white"/>
<rect x="637.31" y="750.83" width="49.607" height="32.5546" rx="4" fill="white"/>
<rect x="683.817" y="459.389" width="49.607" height="32.5546" rx="4" fill="white"/>
<rect x="685.367" y="513.646" width="48.0568" height="31.0044" rx="4" fill="white"/>
<rect x="685.367" y="566.354" width="48.0568" height="31.0044" rx="4" fill="white"/>
<rect x="685.367" y="619.062" width="48.0568" height="31.0044" rx="4" fill="white"/>
<rect x="685.367" y="671.769" width="48.0568" height="31.0044" rx="4" fill="white"/>
<rect x="685.367" y="724.476" width="48.0568" height="31.0044" rx="4" fill="white"/>
<rect x="683.817" y="777.184" width="49.607" height="32.5546" rx="4" fill="white"/>
<rect x="730.323" y="433.035" width="48.0568" height="32.5546" rx="4" fill="white"/>
<rect x="730.323" y="485.742" width="48.0568" height="32.5546" rx="4" fill="white"/>
<rect x="730.323" y="538.45" width="48.0568" height="32.5546" rx="4" fill="white"/>
<rect x="730.323" y="591.157" width="48.0568" height="32.5546" rx="4" fill="white"/>
<rect x="730.323" y="645.415" width="48.0568" height="31.0044" rx="4" fill="white"/>
<rect x="730.323" y="698.122" width="48.0568" height="31.0044" rx="4" fill="white"/>
<rect x="730.323" y="750.83" width="48.0568" height="32.5546" rx="4" fill="white"/>
<rect x="776.83" y="406.682" width="48.0568" height="31.0044" rx="4" fill="white"/>
<rect x="776.83" y="459.389" width="48.0568" height="31.0044" rx="4" fill="white"/>
<rect x="776.83" y="512.096" width="48.0568" height="31.0044" rx="4" fill="white"/>
<rect x="776.83" y="564.804" width="48.0568" height="31.0044" rx="4" fill="white"/>
<rect x="776.83" y="619.062" width="48.0568" height="31.0044" rx="4" fill="white"/>
<rect x="776.83" y="671.769" width="48.0568" height="31.0044" rx="4" fill="white"/>
<rect x="776.83" y="724.476" width="48.0568" height="31.0044" rx="4" fill="white"/>
<rect x="821.786" y="378.777" width="48.0568" height="32.5546" rx="4" fill="white"/>
<rect x="821.786" y="431.484" width="48.0568" height="32.5546" rx="4" fill="white"/>
<rect x="821.786" y="485.742" width="48.0568" height="32.5546" rx="4" fill="white"/>
<rect x="821.786" y="538.45" width="48.0568" height="32.5546" rx="4" fill="white"/>
<rect x="821.786" y="591.157" width="48.0568" height="32.5546" rx="4" fill="white"/>
<rect x="821.786" y="643.864" width="48.0568" height="32.5546" rx="4" fill="white"/>
<rect x="821.786" y="696.572" width="48.0568" height="32.5546" rx="4" fill="white"/>
<rect x="547.397" y="538.45" width="48.0568" height="32.5546" fill="white"/>
<rect x="545.847" y="592.707" width="48.0568" height="31.0044" fill="white"/>
<rect x="545.847" y="645.415" width="48.0568" height="31.0044" fill="white"/>
<rect x="545.847" y="698.122" width="48.0568" height="31.0044" fill="white"/>
<rect x="545.847" y="750.83" width="48.0568" height="32.5546" fill="white"/>
<rect x="545.847" y="803.537" width="48.0568" height="32.5546" fill="white"/>
<rect x="545.847" y="856.244" width="48.0568" height="32.5546" fill="white"/>
<rect x="246.655" y="341.572" width="40.3057" height="23.2533" rx="4" fill="white"/>
<rect x="293.162" y="367.926" width="40.3057" height="23.2533" rx="4" fill="white"/>
<rect x="339.668" y="394.279" width="38.7555" height="23.2533" rx="4" fill="white"/>
<rect x="386.175" y="420.633" width="38.7555" height="23.2533" rx="4" fill="white"/>
<rect x="432.681" y="446.987" width="37.2052" height="21.7031" rx="4" fill="white"/>
<rect x="479.188" y="473.341" width="37.2052" height="23.2533" rx="4" fill="white"/>
<rect x="525.694" y="499.694" width="37.2052" height="23.2533" rx="4" fill="white"/>
<rect x="293.162" y="315.219" width="40.3057" height="23.2533" rx="4" fill="white"/>
<rect x="339.668" y="341.572" width="38.7555" height="23.2533" rx="4" fill="white"/>
<rect x="386.175" y="367.926" width="38.7555" height="23.2533" rx="4" fill="white"/>
<rect x="432.681" y="394.279" width="37.2052" height="23.2533" rx="4" fill="white"/>
<rect x="479.188" y="420.633" width="37.2052" height="21.7031" rx="4" fill="white"/>
<rect x="525.694" y="446.987" width="38.7555" height="23.2533" rx="4" fill="white"/>
<rect x="572.201" y="473.341" width="37.2052" height="23.2533" rx="4" fill="white"/>
<rect x="339.668" y="288.864" width="38.7555" height="23.2533" rx="4" fill="white"/>
<rect x="386.175" y="315.219" width="38.7555" height="23.2533" rx="4" fill="white"/>
<rect x="432.681" y="341.572" width="37.2052" height="23.2533" rx="4" fill="white"/>
<rect x="479.188" y="367.926" width="37.2052" height="23.2533" rx="4" fill="white"/>
<rect x="525.694" y="394.279" width="37.2052" height="23.2533" rx="4" fill="white"/>
<rect x="572.201" y="420.633" width="37.2052" height="23.2533" rx="4" fill="white"/>
<rect x="618.707" y="446.987" width="37.2052" height="23.2533" rx="4" fill="white"/>
<rect x="387.725" y="262.511" width="37.2052" height="23.2533" rx="4" fill="white"/>
<rect x="432.681" y="288.864" width="37.2052" height="23.2533" rx="4" fill="white"/>
<rect x="479.188" y="313.668" width="37.2052" height="23.2533" rx="4" fill="white"/>
<rect x="525.694" y="341.572" width="37.2052" height="23.2533" rx="4" fill="white"/>
<rect x="572.201" y="367.926" width="37.2052" height="23.2533" rx="4" fill="white"/>
<rect x="618.707" y="394.279" width="37.2052" height="23.2533" rx="4" fill="white"/>
<rect x="665.214" y="417.532" width="37.2052" height="23.2533" rx="4" fill="white"/>
<rect x="432.681" y="236.157" width="37.2052" height="23.2533" rx="4" fill="white"/>
<rect x="479.188" y="262.511" width="37.2052" height="23.2533" rx="4" fill="white"/>
<rect x="525.694" y="288.864" width="37.2052" height="23.2533" rx="4" fill="white"/>
<rect x="572.201" y="315.219" width="37.2052" height="23.2533" rx="4" fill="white"/>
<rect x="618.707" y="341.572" width="37.2052" height="23.2533" rx="4" fill="white"/>
<rect x="665.214" y="367.926" width="37.2052" height="23.2533" rx="4" fill="white"/>
<rect x="711.72" y="394.279" width="37.2052" height="23.2533" rx="4" fill="white"/>
<rect x="479.188" y="209.804" width="37.2052" height="23.2533" rx="4" fill="white"/>
<rect x="525.694" y="236.157" width="37.2052" height="23.2533" rx="4" fill="white"/>
<rect x="572.201" y="262.511" width="37.2052" height="23.2533" rx="4" fill="white"/>
<rect x="618.707" y="288.864" width="37.2052" height="23.2533" rx="4" fill="white"/>
<rect x="665.214" y="315.219" width="37.2052" height="23.2533" rx="4" fill="white"/>
<rect x="711.72" y="341.572" width="37.2052" height="23.2533" rx="4" fill="white"/>
<rect x="756.677" y="367.926" width="37.2052" height="23.2533" rx="4" fill="white"/>
<rect x="525.694" y="185" width="37.2052" height="23.2533" rx="4" fill="white"/>
<rect x="572.201" y="208.253" width="37.2052" height="23.2533" rx="4" fill="white"/>
<rect x="618.707" y="236.157" width="37.2052" height="23.2533" rx="4" fill="white"/>
<rect x="665.214" y="262.511" width="37.2052" height="23.2533" rx="4" fill="white"/>
<rect x="711.72" y="288.864" width="37.2052" height="23.2533" rx="4" fill="white"/>
<rect x="756.677" y="315.219" width="37.2052" height="23.2533" rx="4" fill="white"/>
<rect x="803.183" y="341.572" width="37.2052" height="23.2533" rx="4" fill="white"/>
</svg>
